<svg xmlns="http://www.w3.org/2000/svg" width="32" height="32" enable-background="new 0 0 32 32"
  viewBox="0 0 32 32" id="audio">
  <defs>
    <linearGradient id="gradient1" x1="0%" y1="0%" x2="100%" y2="100%">
      <stop offset="0%" style="stop-color:#FFA500;stop-opacity:1" /> <!-- Orange -->
      <stop offset="50%" style="stop-color:#FF69B4;stop-opacity:1" /> <!-- Pink -->
      <stop offset="100%" style="stop-color:#800080;stop-opacity:1" /> <!-- Purple -->
    </linearGradient>
  </defs>
  <rect width="32" height="32" fill="none"></rect>
  <path fill="url(#gradient1)"
    d="M24,19c-0.552,0-1-0.448-1-1s0.448-1,1-1c0.551,0,1-0.449,1-1s-0.449-1-1-1c-0.552,0-1-0.448-1-1s0.448-1,1-1
      c1.654,0,3,1.346,3,3S25.654,19,24,19z"></path>
  <path fill="url(#gradient1)"
    d="M24 23c-.552 0-1-.448-1-1s.448-1 1-1c2.757 0 5-2.243 5-5s-2.243-5-5-5c-.552 0-1-.448-1-1s.448-1 1-1c3.86 0 7 3.14 7 7S27.86 23 24 23zM5 10H3c-1.103 0-2 .897-2 2v8c0 1.103.897 2 2 2h2V10zM19.911 1.228c-.642-.338-1.414-.294-2.029.127L7 9.066v13.869l10.881 7.711.014.01c.333.228.719.343 1.105.343.312 0 .624-.075.91-.226C20.583 30.417 21 29.714 21 28.935V3.065C21 2.286 20.583 1.583 19.911 1.228z"></path>
</svg>