<svg xmlns="http://www.w3.org/2000/svg" width="96" height="96" fill="none" viewBox="0 0 96 96" id="play-button"><path fill="url(#paint0_linear_707_7006)" fill-rule="evenodd" d="M11.5 47.5C11.5 27.6177 27.6177 11.5 47.5 11.5C67.3823 11.5 83.5 27.6177 83.5 47.5C83.5 67.3823 67.3823 83.5 47.5 83.5C27.6177 83.5 11.5 67.3823 11.5 47.5ZM47.5 6.5C24.8563 6.5 6.5 24.8563 6.5 47.5C6.5 70.1437 24.8563 88.5 47.5 88.5C70.1437 88.5 88.5 70.1437 88.5 47.5C88.5 24.8563 70.1437 6.5 47.5 6.5ZM44.1941 64.9309L65.0542 53.1611C69.462 50.674 69.462 44.326 65.0542 41.8389L44.1941 30.0691C39.8611 27.6243 34.5 30.755 34.5 35.7301L34.5 59.2699C34.5 64.245 39.8611 67.3757 44.1941 64.9309ZM62.5972 46.1936C63.6144 46.7675 63.6144 48.2325 62.5972 48.8064L41.7371 60.5762C40.7372 61.1404 39.5 60.418 39.5 59.2699V35.7301C39.5 34.582 40.7372 33.8596 41.7371 34.4238L62.5972 46.1936Z" clip-rule="evenodd"></path><defs><linearGradient id="paint0_linear_707_7006" x1="47.5" x2="47.5" y1="6.5" y2="88.5" gradientUnits="userSpaceOnUse"><stop stop-color="#D9008F"></stop><stop offset="1" stop-color="#FA6900"></stop></linearGradient></defs></svg>