<svg xmlns="http://www.w3.org/2000/svg" viewBox="0 0 64 64" id="paint-roller">
  <!-- Define a linear gradient with the desired colors -->
  <linearGradient id="gradient" x1="0%" y1="0%" x2="100%" y2="100%">
    <stop offset="0%" style="stop-color: purple;" />
    <stop offset="50%" style="stop-color: pink;" />
    <stop offset="100%" style="stop-color: orange;" />
  </linearGradient>

  <!-- Use the linear gradient as the fill for the path -->
  <path fill="url(#gradient)"
    d="M34 10V2H2v48s6 10 11 0 11-12 13 0v8s4 9 8 0zm11 34.58 10 16.74a2 2 0 0 0 2.7.68l3.56-2a2 2 0 0 0 .74-2.74l-9.9-17.34a2 2 0 0 0-2.9-.63l-3.7 2.64a2 2 0 0 0-.5 2.65z"></path>
  <path fill="#42eaf5" d="M8 27 38 9l6 9-29 18s-5 2-7-9Z"></path>
  <path fill="#007da1"
    d="M63.3 55.44 60.69 51a2 2 0 1 0-3.44 2l2.61 4.42a1 1 0 0 1 .11.76 1 1 0 0 1-.46.61l-1.72 1a1 1 0 0 1-1.37-.35L47.26 44a1 1 0 0 1-.11-.76 1 1 0 0 1 .46-.61l1.72-1a1 1 0 0 1 .76-.1 1 1 0 0 1 .61.46l2.53 4.28a2 2 0 0 0 3.45-2l-2.53-4.28a5 5 0 0 0-5.94-2.18l-4.12-7A1 1 0 0 1 44 30a1 1 0 0 1 .46-.62l9.47-5.59A5 5 0 0 0 55.67 17l-3.56-6a5 5 0 0 0-6.84-1.76l-2.59 1.53-.51-.86A5 5 0 0 0 36 7.78V4a4 4 0 0 0-4-4H4a4 4 0 0 0-4 4v44a8 8 0 0 0 16 0 4 4 0 0 1 8 0v10a6 6 0 0 0 12 0V42a2 2 0 0 0-4 0v16a2 2 0 0 1-4 0V48a8 8 0 0 0-16 0 4 4 0 0 1-8 0V4h28v6.05L8.64 23.86a5 5 0 0 0-1.76 6.85l.51.86-1.73 1A2 2 0 0 0 7.7 36l1.72-1 .51.86a5 5 0 0 0 6.85 1.76l26.69-15.76A5 5 0 0 0 45.23 15l-.51-.86 2.58-1.52a1 1 0 0 1 .76-.11 1 1 0 0 1 .61.46l3.56 6a1 1 0 0 1-.35 1.37L42.41 26a5 5 0 0 0-1.76 6.85l4.12 7a5 5 0 0 0-1 6.26L53 61.54a5 5 0 0 0 6.85 1.76l1.72-1a5 5 0 0 0 1.73-6.86Zm-21.87-37L14.74 34.19a1.06 1.06 0 0 1-.76.11 1 1 0 0 1-.61-.46l-3-5.17a1 1 0 0 1 .35-1.37l26.64-15.77a1 1 0 0 1 1.37.35l3.05 5.17a1 1 0 0 1-.35 1.37Z"></path>
</svg>