<?xml version="1.0" standalone="no"?>
<!DOCTYPE svg PUBLIC "-//W3C//DTD SVG 20010904//EN" "http://www.w3.org/TR/2001/REC-SVG-20010904/DTD/svg10.dtd">
<svg version="1.0" xmlns="http://www.w3.org/2000/svg"
  width="4800.000000pt" height="4800.000000pt" viewBox="0 0 480.000000 480.000000"
  preserveAspectRatio="xMidYMid meet">

  <!-- Define the gradient -->
  <defs>
    <linearGradient id="gradient1" x1="0%" y1="0%" x2="100%" y2="100%">
      <stop offset="0%" style="stop-color:orange;stop-opacity:1" />
      <stop offset="50%" style="stop-color:purple;stop-opacity:1" />
      <stop offset="100%" style="stop-color:pink;stop-opacity:1" />
    </linearGradient>
  </defs>

  <g transform="translate(0.000000,480.000000) scale(0.100000,-0.100000)"
    fill="url(#gradient1)" stroke="none">
    <path
      d="M2170 3455 c-402 -80 -717 -379 -821 -778 -27 -104 -37 -306 -19
    -415 87 -547 587 -937 1128 -882 145 15 244 44 377 110 232 115 404 301 502
    540 57 139 67 198 68 385 0 147 -3 182 -23 260 -50 191 -156 370 -303 510
    -204 193 -437 286 -719 284 -69 -1 -154 -7 -190 -14z m298 -66 c221 -24 436
    -131 589 -293 155 -163 255 -380 270 -584 l6 -82 -179 2 -179 3 -5 90 c-3 50
    -8 95 -12 101 -4 6 -24 19 -43 28 -44 21 -94 9 -125 -31 -19 -25 -20 -39 -20
    -553 l0 -528 -62 -25 c-121 -47 -203 -62 -348 -62 -108 1 -153 5 -225 24 -297
    76 -545 288 -662 564 -35 82 -72 227 -73 280 l0 27 246 0 247 0 -6 -32 c-3
    -18 -9 -42 -13 -52 -6 -17 -4 -18 17 -12 13 5 67 10 120 13 73 4 111 1 155
    -12 162 -46 260 -149 286 -298 14 -81 48 -117 108 -117 34 0 47 6 72 33 l31
    32 -6 145 c-16 358 -112 829 -186 904 -55 55 -167 53 -256 -6 -91 -61 -165
    -183 -244 -404 l-39 -109 -266 -3 -266 -2 0 52 c0 77 33 222 70 311 125 300
    418 536 725 586 141 23 156 23 273 10z m-105 -669 c21 -75 62 -273 73 -344 l7
    -48 -49 28 c-27 15 -53 31 -59 35 -20 15 -135 49 -166 49 -29 0 -31 2 -26 29
    11 56 99 240 134 280 48 56 64 51 86 -29z m967 -388 c0 -35 -21 -138 -42 -202
    -26 -81 -78 -187 -131 -264 -41 -61 -161 -186 -178 -186 -5 0 -9 134 -9 335
    l0 335 180 0 c167 0 180 -1 180 -18z" />
    <path
      d="M2813 2990 c-17 -10 -37 -28 -42 -39 -15 -28 -14 -87 4 -120 15 -30
    69 -61 105 -61 34 0 78 28 95 60 57 111 -57 224 -162 160z" />
    <path
      d="M1905 2153 c-27 -8 -56 -20 -63 -25 -16 -14 -62 -165 -62 -206 0 -48
    38 -82 91 -82 65 0 82 23 129 171 22 71 43 136 46 144 5 12 -3 15 -42 14 -27
    0 -71 -7 -99 -16z" />
  </g>
</svg>